<?xml version="1.0" encoding="UTF-8" standalone="no"?>
<!-- Created with Inkscape (http://www.inkscape.org/) -->

<svg
   width="200mm"
   height="300mm"
   viewBox="0 0 200 300"
   version="1.1"
   id="svg5"
   inkscape:version="1.1.2 (b8e25be833, 2022-02-05)"
   sodipodi:docname="patinha.svg"
   xmlns:inkscape="http://www.inkscape.org/namespaces/inkscape"
   xmlns:sodipodi="http://sodipodi.sourceforge.net/DTD/sodipodi-0.dtd"
   xmlns="http://www.w3.org/2000/svg"
   xmlns:svg="http://www.w3.org/2000/svg">
  <sodipodi:namedview
     id="namedview7"
     pagecolor="#ffffff"
     bordercolor="#666666"
     borderopacity="1.0"
     inkscape:pageshadow="2"
     inkscape:pageopacity="0.0"
     inkscape:pagecheckerboard="0"
     inkscape:document-units="mm"
     showgrid="false"
     width="200mm"
     inkscape:zoom="0.21323069"
     inkscape:cx="987.19373"
     inkscape:cy="581.5298"
     inkscape:window-width="1600"
     inkscape:window-height="837"
     inkscape:window-x="-8"
     inkscape:window-y="-8"
     inkscape:window-maximized="1"
     inkscape:current-layer="layer1" />
  <defs
     id="defs2">
    <clipPath
       id="_clipPath_QG2pkfDO5SheRvOC4CPuyODAjGnjJ001">
      <rect
         width="1772"
         height="400"
         id="rect9"
         x="0"
         y="0" />
    </clipPath>
  </defs>
  <g
     inkscape:label="Camada 1"
     inkscape:groupmode="layer"
     id="layer1">
    <g
       style="isolation:isolate"
       id="g138"
       transform="matrix(1.4122363,0,0,1.4122363,-690.39714,-170.73927)">
      <g
         clip-path="url(#_clipPath_QG2pkfDO5SheRvOC4CPuyODAjGnjJ001)"
         id="g88">
        <g
           id="g80">
          <g
             id="g56">
            <mask
               id="_mask_GHIXNmW7MT3qg5co0Xku5bZ5xjclW48f">
              <path
                 d="m 521.184,310 6,-90 c -10.793,-6.409 -14.45,-15.065 -11,-26 5.132,-4.649 10.142,-6.306 15,-5 -0.643,-9.769 2.7,-15.093 10,-16 8,-0.333 13.01,2.677 15,9 3.667,-5.667 9.01,-7.323 16,-5 4.334,3.333 6.677,8.343 7,15 4.667,1 8.344,3.343 11,7 2.869,7.786 -0.787,16.13 -11,25 l 4,86 z"
                 fill="#ffffff"
                 stroke="none"
                 id="path14" />
            </mask>
            <path
               d="m 521.184,310 6,-90 c -10.793,-6.409 -14.45,-15.065 -11,-26 5.132,-4.649 10.142,-6.306 15,-5 -0.643,-9.769 2.7,-15.093 10,-16 8,-0.333 13.01,2.677 15,9 3.667,-5.667 9.01,-7.323 16,-5 4.334,3.333 6.677,8.343 7,15 4.667,1 8.344,3.343 11,7 2.869,7.786 -0.787,16.13 -11,25 l 4,86 z"
               fill="#b9b9b9"
               id="path17" />
            <path
               d="m 521.184,310 6,-90 c -10.793,-6.409 -14.45,-15.065 -11,-26 5.132,-4.649 10.142,-6.306 15,-5 -0.643,-9.769 2.7,-15.093 10,-16 8,-0.333 13.01,2.677 15,9 3.667,-5.667 9.01,-7.323 16,-5 4.334,3.333 6.677,8.343 7,15 4.667,1 8.344,3.343 11,7 2.869,7.786 -0.787,16.13 -11,25 l 4,86 z"
               fill="#b9b9b9"
               mask="url(#_mask_GHIXNmW7MT3qg5co0Xku5bZ5xjclW48f)"
               vector-effect="non-scaling-stroke"
               stroke-width="4.6"
               stroke="#000000"
               stroke-linejoin="miter"
               stroke-linecap="square"
               stroke-miterlimit="3"
               id="path19" />
            <mask
               id="_mask_HS7mYA8zglYqYEfieRlThXjpxy75eG10">
              <path
                 d="m 553.184,217 c -3.937,1.938 -7.927,1.948 -12,0 -1.828,-3.047 -2.661,-4.915 -2.3,-7.273 0.247,-1.605 1.035,-3.086 2.3,-4.727 5.938,-5 9.948,-6.99 12,-6 0.813,-0.812 4.823,1.197 12,6 3,5.578 2.719,6.703 0,12 -4,1.938 -7.99,1.948 -12,0 z"
                 fill="#ffffff"
                 stroke="none"
                 id="path21" />
            </mask>
            <path
               d="m 553.184,217 c -3.937,1.938 -7.927,1.948 -12,0 -1.828,-3.047 -2.661,-4.915 -2.3,-7.273 0.247,-1.605 1.035,-3.086 2.3,-4.727 5.938,-5 9.948,-6.99 12,-6 0.813,-0.812 4.823,1.197 12,6 3,5.578 2.719,6.703 0,12 -4,1.938 -7.99,1.948 -12,0 z"
               fill="#271a19"
               id="path24" />
            <path
               d="m 553.184,217 c -3.937,1.938 -7.927,1.948 -12,0 -1.828,-3.047 -2.661,-4.915 -2.3,-7.273 0.247,-1.605 1.035,-3.086 2.3,-4.727 5.938,-5 9.948,-6.99 12,-6 0.813,-0.812 4.823,1.197 12,6 3,5.578 2.719,6.703 0,12 -4,1.938 -7.99,1.948 -12,0 z"
               fill="#271a19"
               mask="url(#_mask_HS7mYA8zglYqYEfieRlThXjpxy75eG10)"
               vector-effect="non-scaling-stroke"
               stroke-width="4"
               stroke="#000000"
               stroke-linejoin="miter"
               stroke-linecap="square"
               stroke-miterlimit="3"
               id="path26" />
            <mask
               id="_mask_pWJQ6iPKVmdfk5W4Da7CvIoUvJ1CGkGV">
              <path
                 d="m 562.491,187.678 c 0.973,-1.982 2.969,-2.998 4.456,-2.269 1.486,0.73 1.903,2.931 0.93,4.913 -0.972,1.982 -2.969,2.998 -4.455,2.269 -1.487,-0.73 -1.904,-2.931 -0.931,-4.913 z"
                 fill="#ffffff"
                 stroke="none"
                 id="path28" />
            </mask>
            <path
               d="m 562.491,187.678 c 0.973,-1.982 2.969,-2.998 4.456,-2.269 1.486,0.73 1.903,2.931 0.93,4.913 -0.972,1.982 -2.969,2.998 -4.455,2.269 -1.487,-0.73 -1.904,-2.931 -0.931,-4.913 z"
               fill="#271a19"
               id="path31" />
            <path
               d="m 562.491,187.678 c 0.973,-1.982 2.969,-2.998 4.456,-2.269 1.486,0.73 1.903,2.931 0.93,4.913 -0.972,1.982 -2.969,2.998 -4.455,2.269 -1.487,-0.73 -1.904,-2.931 -0.931,-4.913 z"
               fill="#271a19"
               mask="url(#_mask_pWJQ6iPKVmdfk5W4Da7CvIoUvJ1CGkGV)"
               vector-effect="non-scaling-stroke"
               stroke-width="2"
               stroke="#000000"
               stroke-linejoin="miter"
               stroke-linecap="square"
               stroke-miterlimit="3"
               id="path33" />
            <mask
               id="_mask_ZrHtCGu8kdtjDIN9ggzvhHJOfsdDNoP0">
              <path
                 d="m 573.509,203.839 c 1.267,-1.808 3.397,-2.504 4.753,-1.554 1.356,0.951 1.428,3.19 0.16,4.998 -1.267,1.807 -3.396,2.503 -4.752,1.553 -1.356,-0.95 -1.428,-3.19 -0.161,-4.997 z"
                 fill="#ffffff"
                 stroke="none"
                 id="path35" />
            </mask>
            <path
               d="m 573.509,203.839 c 1.267,-1.808 3.397,-2.504 4.753,-1.554 1.356,0.951 1.428,3.19 0.16,4.998 -1.267,1.807 -3.396,2.503 -4.752,1.553 -1.356,-0.95 -1.428,-3.19 -0.161,-4.997 z"
               fill="#271a19"
               id="path38" />
            <path
               d="m 573.509,203.839 c 1.267,-1.808 3.397,-2.504 4.753,-1.554 1.356,0.951 1.428,3.19 0.16,4.998 -1.267,1.807 -3.396,2.503 -4.752,1.553 -1.356,-0.95 -1.428,-3.19 -0.161,-4.997 z"
               fill="#271a19"
               mask="url(#_mask_ZrHtCGu8kdtjDIN9ggzvhHJOfsdDNoP0)"
               vector-effect="non-scaling-stroke"
               stroke-width="2"
               stroke="#000000"
               stroke-linejoin="miter"
               stroke-linecap="square"
               stroke-miterlimit="3"
               id="path40" />
            <mask
               id="_mask_tGUCroTGkBwuX3Lc3KqG4CAdxOTKwyS2">
              <path
                 d="m 529.131,204.444 c -1.61,-1.511 -1.996,-3.718 -0.863,-4.925 1.134,-1.207 3.36,-0.96 4.97,0.551 1.609,1.511 1.996,3.718 0.862,4.925 -1.133,1.207 -3.36,0.96 -4.969,-0.551 z"
                 fill="#ffffff"
                 stroke="none"
                 id="path42" />
            </mask>
            <path
               d="m 529.131,204.444 c -1.61,-1.511 -1.996,-3.718 -0.863,-4.925 1.134,-1.207 3.36,-0.96 4.97,0.551 1.609,1.511 1.996,3.718 0.862,4.925 -1.133,1.207 -3.36,0.96 -4.969,-0.551 z"
               fill="#271a19"
               id="path45" />
            <path
               d="m 529.131,204.444 c -1.61,-1.511 -1.996,-3.718 -0.863,-4.925 1.134,-1.207 3.36,-0.96 4.97,0.551 1.609,1.511 1.996,3.718 0.862,4.925 -1.133,1.207 -3.36,0.96 -4.969,-0.551 z"
               fill="#271a19"
               mask="url(#_mask_tGUCroTGkBwuX3Lc3KqG4CAdxOTKwyS2)"
               vector-effect="non-scaling-stroke"
               stroke-width="2"
               stroke="#000000"
               stroke-linejoin="miter"
               stroke-linecap="square"
               stroke-miterlimit="3"
               id="path47" />
            <mask
               id="_mask_zW09Bh9DGjqEzL2FAWi1QQjCJxgqKhqQ">
              <path
                 d="m 541.312,187.697 c -0.482,-2.155 0.439,-4.197 2.054,-4.559 1.616,-0.362 3.319,1.094 3.802,3.248 0.482,2.155 -0.439,4.197 -2.054,4.559 -1.616,0.362 -3.319,-1.094 -3.802,-3.248 z"
                 fill="#ffffff"
                 stroke="none"
                 id="path49" />
            </mask>
            <path
               d="m 541.312,187.697 c -0.482,-2.155 0.439,-4.197 2.054,-4.559 1.616,-0.362 3.319,1.094 3.802,3.248 0.482,2.155 -0.439,4.197 -2.054,4.559 -1.616,0.362 -3.319,-1.094 -3.802,-3.248 z"
               fill="#271a19"
               id="path52" />
            <path
               d="m 541.312,187.697 c -0.482,-2.155 0.439,-4.197 2.054,-4.559 1.616,-0.362 3.319,1.094 3.802,3.248 0.482,2.155 -0.439,4.197 -2.054,4.559 -1.616,0.362 -3.319,-1.094 -3.802,-3.248 z"
               fill="#271a19"
               mask="url(#_mask_zW09Bh9DGjqEzL2FAWi1QQjCJxgqKhqQ)"
               vector-effect="non-scaling-stroke"
               stroke-width="2"
               stroke="#000000"
               stroke-linejoin="miter"
               stroke-linecap="square"
               stroke-miterlimit="3"
               id="path54" />
          </g>
          <g
             id="g71">
            <mask
               id="_mask_yz2F1IX2iT0YB5aJ25ZDOq3KLbLK7nMQ">
              <path
                 d="m 545.184,233 c -1.328,-1.187 -0.519,-3.121 1,-3 5.993,0.651 10.669,0.661 14,0 3.496,-0.762 3.36,2.059 1,3 -5.129,1.133 -9.594,1.449 -16,0 z"
                 fill="#ffffff"
                 stroke="none"
                 id="path58" />
            </mask>
            <path
               d="m 545.184,233 c -1.328,-1.187 -0.519,-3.121 1,-3 5.993,0.651 10.669,0.661 14,0 3.496,-0.762 3.36,2.059 1,3 -5.129,1.133 -9.594,1.449 -16,0 z"
               fill="#000000"
               id="path61" />
            <path
               d="m 545.184,233 c -1.328,-1.187 -0.519,-3.121 1,-3 5.993,0.651 10.669,0.661 14,0 3.496,-0.762 3.36,2.059 1,3 -5.129,1.133 -9.594,1.449 -16,0 z"
               fill="#000000"
               mask="url(#_mask_yz2F1IX2iT0YB5aJ25ZDOq3KLbLK7nMQ)"
               vector-effect="non-scaling-stroke"
               stroke-width="2"
               stroke="#000000"
               stroke-linejoin="miter"
               stroke-linecap="square"
               stroke-miterlimit="3"
               id="path63" />
            <path
               d="m 527.348,251.448 c 3.527,0.281 7.212,-0.09 10.624,-0.601 7.979,-1.196 14.457,-3.16 13.887,0.662 -2.688,10.259 -11.256,16.516 -25.729,18.735 z"
               fill="#8b8b8b"
               id="path65" />
            <path
               d="m 525.382,285 c 3.527,0.281 9.179,1.511 12.59,1 7.979,-1.196 18.526,-1.822 17.956,2 -2.688,10.259 -17.291,11.78 -31.764,14 z"
               fill="#8b8b8b"
               id="path67" />
            <path
               d="m 560.928,265 c -1.849,-2.202 -0.125,-7.125 3.35,-5.245 6.736,2.317 13.491,3.893 14.741,3.393 l 1,12 C 572.706,271.773 563.198,267.703 560.928,265 Z"
               fill="#8b8b8b"
               id="path69" />
          </g>
          <mask
             id="_mask_UGeiswIF0qpxfSdR0Os3P5l9FAKK3lR8">
            <path
               d="m 618.225,227.657 c 2.388,-3.164 3.247,-6.318 2.53,-9.4 L 520,187 c 0.228,-1.902 -2.697,-1.28 -3,-3 5.703,-20.809 5.193,-17.919 10,-36 -1.484,-2.464 -5.952,-4.538 -8,-3 q -0.351,0.264 -10.654,35.445 c -0.249,0.918 -0.152,1.759 0.247,2.587 -0.365,0.716 -0.56,1.478 -0.633,2.35 -0.13,1.357 -0.032,2.198 0.247,2.587 -0.06,1.245 0.038,2.086 0.247,2.587 0.521,1.287 1.172,1.216 1.759,0.473 0.03,1.529 0.329,2.665 1.126,2.823 l 0.879,0.237 q 0.519,-0.176 0.879,0.237 0.361,0.412 1.759,0.473 z"
               fill="#ffffff"
               stroke="none"
               id="path73" />
          </mask>
          <path
             d="m 618.225,227.657 c 2.388,-3.164 3.247,-6.318 2.53,-9.4 L 520,187 c 0.228,-1.902 -2.697,-1.28 -3,-3 5.703,-20.809 5.193,-17.919 10,-36 -1.484,-2.464 -5.952,-4.538 -8,-3 q -0.351,0.264 -10.654,35.445 c -0.249,0.918 -0.152,1.759 0.247,2.587 -0.365,0.716 -0.56,1.478 -0.633,2.35 -0.13,1.357 -0.032,2.198 0.247,2.587 -0.06,1.245 0.038,2.086 0.247,2.587 0.521,1.287 1.172,1.216 1.759,0.473 0.03,1.529 0.329,2.665 1.126,2.823 l 0.879,0.237 q 0.519,-0.176 0.879,0.237 0.361,0.412 1.759,0.473 z"
             fill="#bcdec7"
             id="path76" />
          <path
             d="m 618.225,227.657 c 2.388,-3.164 3.247,-6.318 2.53,-9.4 L 520,187 c 0.228,-1.902 -2.697,-1.28 -3,-3 5.703,-20.809 5.193,-17.919 10,-36 -1.484,-2.464 -5.952,-4.538 -8,-3 q -0.351,0.264 -10.654,35.445 c -0.249,0.918 -0.152,1.759 0.247,2.587 -0.365,0.716 -0.56,1.478 -0.633,2.35 -0.13,1.357 -0.032,2.198 0.247,2.587 -0.06,1.245 0.038,2.086 0.247,2.587 0.521,1.287 1.172,1.216 1.759,0.473 0.03,1.529 0.329,2.665 1.126,2.823 l 0.879,0.237 q 0.519,-0.176 0.879,0.237 0.361,0.412 1.759,0.473 z"
             fill="#bcdec7"
             mask="url(#_mask_UGeiswIF0qpxfSdR0Os3P5l9FAKK3lR8)"
             vector-effect="non-scaling-stroke"
             stroke-width="1"
             stroke="#000000"
             stroke-linejoin="miter"
             stroke-linecap="square"
             stroke-miterlimit="3"
             id="path78" />
        </g>
        <line
           x1="615.797"
           y1="217.60899"
           x2="616.797"
           y2="217.60899"
           id="line82" />
        <line
           x1="618"
           y1="218"
           x2="619"
           y2="218"
           id="line84" />
        <line
           x1="620"
           y1="224"
           x2="620"
           y2="224"
           id="line86" />
      </g>
    </g>
  </g>
</svg>
